<svg width="47" height="44" viewBox="0 0 47 44" fill="none" xmlns="http://www.w3.org/2000/svg">
<path d="M24.3202 23.1108L45.6634 6.40662C45.9186 6.21034 46.0625 5.90282 46.0625 5.58221L46.0625 0.524496C46.0625 0.0861171 45.5587 -0.155973 45.2185 0.112289L23.0312 17.4773L0.844044 0.112287C0.766899 0.0518743 0.674309 0.0143893 0.576862 0.00411755C0.479416 -0.00615416 0.381046 0.0112025 0.292999 0.0542022C0.204952 0.0972018 0.130783 0.16411 0.078968 0.247275C0.027153 0.330441 -0.000209827 0.426508 -2.29265e-08 0.524494L-2.44006e-07 5.58221C-2.5802e-07 5.90281 0.150486 6.21033 0.39912 6.40662L21.7357 23.1108C22.5013 23.7062 23.5612 23.7062 24.3202 23.1108ZM24.3202 43.0014L45.6634 26.2973C45.9186 26.101 46.0625 25.7934 46.0625 25.4728L46.0625 20.4151C46.0625 19.9767 45.5587 19.7347 45.2185 20.0029L23.0312 37.3679L0.844043 20.0029C0.766898 19.9425 0.674308 19.905 0.576861 19.8947C0.479415 19.8845 0.381045 19.9018 0.292998 19.9448C0.204951 19.9878 0.130782 20.0547 0.0789672 20.1379C0.0271521 20.2211 -0.000210696 20.3171 -8.92373e-07 20.4151L-1.11345e-06 25.4728C-1.12747e-06 25.7934 0.150485 26.101 0.399119 26.2972L21.7357 43.0014C22.5013 43.5969 23.5612 43.5969 24.3202 43.0014Z" fill="#9C9C9C"/>
</svg>
