<svg width="38" height="1661" viewBox="0 0 38 1661" fill="none" xmlns="http://www.w3.org/2000/svg">
<g filter="url(#filter0_d_87_1248)">
<path fill-rule="evenodd" clip-rule="evenodd" d="M24.0318 29.1352C29.8411 27.0671 34 21.5192 34 15C34 6.71573 27.2843 0 19 0C10.7157 0 4 6.71573 4 15C4 21.543 8.18923 27.1075 14.0318 29.1577L13.9619 1623.87C8.15584 1625.94 4 1631.48 4 1638C4 1646.28 10.7157 1653 19 1653C27.2843 1653 34 1646.28 34 1638C34 1631.45 29.8077 1625.89 23.9619 1623.84L24.0318 29.1352Z" fill="#4FA051"/>
</g>
<defs>
<filter id="filter0_d_87_1248" x="0" y="0" width="38" height="1661" filterUnits="userSpaceOnUse" color-interpolation-filters="sRGB">
<feFlood flood-opacity="0" result="BackgroundImageFix"/>
<feColorMatrix in="SourceAlpha" type="matrix" values="0 0 0 0 0 0 0 0 0 0 0 0 0 0 0 0 0 0 127 0" result="hardAlpha"/>
<feOffset dy="4"/>
<feGaussianBlur stdDeviation="2"/>
<feComposite in2="hardAlpha" operator="out"/>
<feColorMatrix type="matrix" values="0 0 0 0 0 0 0 0 0 0 0 0 0 0 0 0 0 0 0.25 0"/>
<feBlend mode="normal" in2="BackgroundImageFix" result="effect1_dropShadow_87_1248"/>
<feBlend mode="normal" in="SourceGraphic" in2="effect1_dropShadow_87_1248" result="shape"/>
</filter>
</defs>
</svg>
